<svg xmlns="http://www.w3.org/2000/svg" viewBox="0 0 100 112">
  <path d="M50 4 C50 4 90 56 90 80 A40 40 0 1 1 10 80 C10 56 50 4 50 4 Z" fill="#27b6db"/>
  <path d="M50 4 C50 4 90 56 90 80 A40 40 0 0 1 50 100 Z" fill="#1689a8" opacity="0.16"/>
  <ellipse cx="27" cy="40" rx="11" ry="14" fill="#fff" opacity="0.55"/>
  <path d="M30 74 q8 -10 16 0" fill="none" stroke="#22323a" stroke-width="4.5" stroke-linecap="round"/>
  <path d="M54 74 q8 -10 16 0" fill="none" stroke="#22323a" stroke-width="4.5" stroke-linecap="round"/>
  <circle cx="28" cy="87" r="5.5" fill="#ff9bb0" opacity="0.7"/>
  <circle cx="72" cy="87" r="5.5" fill="#ff9bb0" opacity="0.7"/>
  <path d="M39 88 q11 13 22 0" fill="none" stroke="#22323a" stroke-width="4.5" stroke-linecap="round"/>
</svg>
